<svg width="39" height="48" viewBox="0 0 39 48" fill="none" xmlns="http://www.w3.org/2000/svg">
<path d="M33.8808 23.9999C30.3264 27.9712 25.161 30.4705 19.4118 30.4705C13.6627 30.4705 8.49731 27.9712 4.94287 23.9999C8.49731 20.0286 13.6627 17.5293 19.4118 17.5293C25.161 17.5293 30.3264 20.0286 33.8808 23.9999Z" fill="white"/>
<path fill-rule="evenodd" clip-rule="evenodd" d="M0 36.9411C0 26.2202 8.69097 17.5293 19.4118 17.5293C13.6627 17.5293 8.49733 20.0286 4.94289 23.9999C8.49733 27.9712 13.6627 30.4705 19.4119 30.4705C25.161 30.4705 30.3264 27.9712 33.8808 23.9999C36.9546 27.4342 38.8236 31.9694 38.8236 36.9411V44.2744C38.8236 45.2274 38.0511 45.9999 37.0981 45.9999H1.72549C0.77253 45.9999 0 45.2274 0 44.2744V36.9411ZM33.8808 23.9999C33.8808 23.9999 33.8808 23.9999 33.8808 23.9999V23.9999Z" fill="#7CD4FD"/>
<path fill-rule="evenodd" clip-rule="evenodd" d="M12.1307 29.0589C9.35893 27.9366 6.90537 26.1926 4.94289 24C8.49733 20.0287 13.6627 17.5294 19.4119 17.5294C25.161 17.5294 30.3264 20.0287 33.8808 24C33.8808 24 33.8808 24 33.8808 24C36.9546 20.5657 38.8236 16.0305 38.8236 11.0588V3.72549C38.8236 2.77253 38.0511 2 37.0981 2L1.7255 2C0.772532 2 7.24413e-07 2.77253 6.41103e-07 3.72549L0 11.0588C-1.28945e-06 19.2047 5.01756 26.1788 12.1307 29.0589Z" fill="#0BA5EC"/>
</svg>
